<svg width="71" height="29" viewBox="0 0 71 29" fill="none" xmlns="http://www.w3.org/2000/svg">
<g filter="url(#filter0_d_13_10)">
<path d="M8.50762 4.325C9.15762 4.325 9.85762 4.39167 10.6076 4.525C11.3743 4.64167 11.8243 4.70833 11.9576 4.725L11.9076 6.6C10.441 6.33333 9.30762 6.2 8.50762 6.2C7.37428 6.2 6.55762 6.43333 6.05762 6.9C5.55762 7.36667 5.30762 8.14167 5.30762 9.225V16.375C5.30762 17.4583 5.54928 18.2333 6.03262 18.7C6.53262 19.15 7.35762 19.375 8.50762 19.375C9.30762 19.375 10.441 19.2417 11.9076 18.975L11.9576 20.9C11.8243 20.9167 11.3743 20.9833 10.6076 21.1C9.85762 21.2333 9.15762 21.3 8.50762 21.3C6.59095 21.3 5.22428 20.8917 4.40762 20.075C3.59095 19.2583 3.18262 17.9833 3.18262 16.25V9.375C3.18262 7.64167 3.59095 6.36667 4.40762 5.55C5.22428 4.73333 6.59095 4.325 8.50762 4.325ZM17.1973 3.925V21H15.0723V3.925H17.1973ZM24.4125 8.5C25.8458 8.5 26.8875 8.825 27.5375 9.475C28.2042 10.1083 28.5375 11.125 28.5375 12.525V21H26.5125V19.05C25.5458 20.55 24.4542 21.3 23.2375 21.3C22.2708 21.3 21.4958 20.9667 20.9125 20.3C20.3458 19.6333 20.0625 18.725 20.0625 17.575V16.875C20.0625 15.875 20.4042 15.05 21.0875 14.4C21.7708 13.7333 22.6875 13.4 23.8375 13.4C24.4708 13.4 25.3292 13.5083 26.4125 13.725V12.35C26.4125 11.6333 26.2458 11.1167 25.9125 10.8C25.5958 10.4833 25.0958 10.325 24.4125 10.325C23.6125 10.325 22.4875 10.45 21.0375 10.7V8.875C22.6042 8.625 23.7292 8.5 24.4125 8.5ZM24.3625 15.05C23.6625 15.05 23.1292 15.2333 22.7625 15.6C22.3958 15.9667 22.2125 16.4833 22.2125 17.15V17.425C22.2125 18.0417 22.3542 18.525 22.6375 18.875C22.9208 19.225 23.2792 19.4 23.7125 19.4C24.1625 19.4 24.6208 19.2083 25.0875 18.825C25.5708 18.425 26.0125 17.8667 26.4125 17.15V15.225C25.7792 15.1083 25.0958 15.05 24.3625 15.05ZM35.418 8.5C36.118 8.5 36.9596 8.6 37.943 8.8L37.893 10.6C37.0263 10.4 36.2346 10.3 35.518 10.3C34.018 10.3 33.268 10.7833 33.268 11.75V11.975C33.268 12.275 33.343 12.5167 33.493 12.7C33.6596 12.8833 33.9513 13.075 34.368 13.275L36.718 14.375C38.1346 15.0417 38.843 16.0167 38.843 17.3V17.85C38.8263 19 38.4763 19.8667 37.793 20.45C37.1263 21.0167 36.068 21.3 34.618 21.3C33.868 21.3 32.793 21.125 31.393 20.775L31.493 18.875C32.743 19.2417 33.768 19.425 34.568 19.425C35.3846 19.425 35.9513 19.3167 36.268 19.1C36.5846 18.8667 36.743 18.4917 36.743 17.975V17.725C36.743 17.325 36.6596 17.0083 36.493 16.775C36.343 16.5417 36.0846 16.3417 35.718 16.175L33.293 15.1C32.5596 14.7667 32.018 14.3667 31.668 13.9C31.3346 13.4333 31.168 12.8917 31.168 12.275V11.925C31.2013 10.7917 31.5513 9.94167 32.218 9.375C32.9013 8.79167 33.968 8.5 35.418 8.5ZM44.793 8.5C45.493 8.5 46.3346 8.6 47.318 8.8L47.268 10.6C46.4013 10.4 45.6096 10.3 44.893 10.3C43.393 10.3 42.643 10.7833 42.643 11.75V11.975C42.643 12.275 42.718 12.5167 42.868 12.7C43.0346 12.8833 43.3263 13.075 43.743 13.275L46.093 14.375C47.5096 15.0417 48.218 16.0167 48.218 17.3V17.85C48.2013 19 47.8513 19.8667 47.168 20.45C46.5013 21.0167 45.443 21.3 43.993 21.3C43.243 21.3 42.168 21.125 40.768 20.775L40.868 18.875C42.118 19.2417 43.143 19.425 43.943 19.425C44.7596 19.425 45.3263 19.3167 45.643 19.1C45.9596 18.8667 46.118 18.4917 46.118 17.975V17.725C46.118 17.325 46.0346 17.0083 45.868 16.775C45.718 16.5417 45.4596 16.3417 45.093 16.175L42.668 15.1C41.9346 14.7667 41.393 14.3667 41.043 13.9C40.7096 13.4333 40.543 12.8917 40.543 12.275V11.925C40.5763 10.7917 40.9263 9.94167 41.593 9.375C42.2763 8.79167 43.343 8.5 44.793 8.5ZM53.0859 8.8V21H50.9609V8.8H53.0859ZM52.0109 3.875C52.4609 3.875 52.8026 3.975 53.0359 4.175C53.2859 4.375 53.4109 4.65833 53.4109 5.025V5.75C53.4109 6.11667 53.2859 6.4 53.0359 6.6C52.8026 6.78333 52.4609 6.875 52.0109 6.875C51.5776 6.875 51.2359 6.78333 50.9859 6.6C50.7526 6.4 50.6359 6.11667 50.6359 5.75V5.025C50.6359 4.65833 50.7526 4.375 50.9859 4.175C51.2359 3.975 51.5776 3.875 52.0109 3.875ZM60.8512 8.5C61.6012 8.5 62.4512 8.60833 63.4012 8.825L63.3512 10.7C62.3845 10.4833 61.5512 10.375 60.8512 10.375C60.0678 10.375 59.4678 10.5917 59.0512 11.025C58.6512 11.4583 58.4512 12.075 58.4512 12.875V16.9C58.4512 17.7333 58.6595 18.3667 59.0762 18.8C59.5095 19.2167 60.1012 19.425 60.8512 19.425C61.3178 19.425 61.7262 19.4 62.0762 19.35C62.4262 19.3 62.8512 19.2167 63.3512 19.1L63.4012 20.975C62.3845 21.1917 61.5262 21.3 60.8262 21.3C57.8262 21.3 56.3262 19.7833 56.3262 16.75V13.05C56.3262 10.0167 57.8345 8.5 60.8512 8.5Z" fill="white"/>
</g>
<defs>
<filter id="filter0_d_13_10" x="0.182617" y="0.875" width="70.2186" height="27.425" filterUnits="userSpaceOnUse" color-interpolation-filters="sRGB">
<feFlood flood-opacity="0" result="BackgroundImageFix"/>
<feColorMatrix in="SourceAlpha" type="matrix" values="0 0 0 0 0 0 0 0 0 0 0 0 0 0 0 0 0 0 127 0" result="hardAlpha"/>
<feOffset dx="2" dy="2"/>
<feGaussianBlur stdDeviation="2.5"/>
<feColorMatrix type="matrix" values="0 0 0 0 0 0 0 0 0 0 0 0 0 0 0 0 0 0 0.25 0"/>
<feBlend mode="normal" in2="BackgroundImageFix" result="effect1_dropShadow_13_10"/>
<feBlend mode="normal" in="SourceGraphic" in2="effect1_dropShadow_13_10" result="shape"/>
</filter>
</defs>
</svg>
