<svg width="98" height="29" viewBox="0 0 98 29" fill="none" xmlns="http://www.w3.org/2000/svg">
<g filter="url(#filter0_d_13_3)">
<path d="M5.73633 4.625V21H3.61133V4.625H5.73633ZM14.6951 8.5C15.7618 8.5 16.5785 8.86667 17.1451 9.6C17.7285 10.3167 18.0201 11.3417 18.0201 12.675V21H15.8951V12.975C15.8951 11.3083 15.3535 10.475 14.2701 10.475C13.7868 10.475 13.2951 10.6583 12.7951 11.025C12.2951 11.3917 11.8618 11.8917 11.4951 12.525V21H9.37012V8.8H11.3701V10.625C11.8201 9.94167 12.3201 9.41667 12.8701 9.05C13.4368 8.68333 14.0451 8.5 14.6951 8.5ZM29.9283 21H27.9033V19.025C26.9033 20.5417 25.7617 21.3 24.4783 21.3C23.445 21.3 22.6533 20.95 22.1033 20.25C21.5533 19.5333 21.2783 18.4917 21.2783 17.125V12.675C21.2783 11.3583 21.5783 10.3333 22.1783 9.6C22.795 8.86667 23.67 8.5 24.8033 8.5C25.2867 8.5 25.795 8.625 26.3283 8.875C26.8617 9.10833 27.3533 9.4 27.8033 9.75V3.925H29.9283V21ZM25.2783 10.4C24.6783 10.4 24.2117 10.6167 23.8783 11.05C23.5617 11.4667 23.4033 12.1083 23.4033 12.975V16.85C23.4033 18.55 23.9283 19.4 24.9783 19.4C25.4783 19.4 25.97 19.2083 26.4533 18.825C26.9533 18.425 27.4033 17.8667 27.8033 17.15V11.65C27.4533 11.2833 27.0367 10.9833 26.5533 10.75C26.0867 10.5167 25.6617 10.4 25.2783 10.4ZM41.918 21H39.918V19.25C39.468 19.9167 38.968 20.425 38.418 20.775C37.868 21.125 37.2846 21.3 36.668 21.3C35.6513 21.3 34.8513 20.95 34.268 20.25C33.7013 19.5333 33.418 18.4917 33.418 17.125V8.8H35.543V16.75C35.543 17.6333 35.6763 18.2833 35.943 18.7C36.2263 19.1167 36.6096 19.325 37.093 19.325C37.543 19.325 38.0096 19.15 38.493 18.8C38.993 18.4333 39.4263 17.9333 39.793 17.3V8.8H41.918V21ZM48.9297 8.5C49.6297 8.5 50.4714 8.6 51.4547 8.8L51.4047 10.6C50.538 10.4 49.7464 10.3 49.0297 10.3C47.5297 10.3 46.7797 10.7833 46.7797 11.75V11.975C46.7797 12.275 46.8547 12.5167 47.0047 12.7C47.1714 12.8833 47.463 13.075 47.8797 13.275L50.2297 14.375C51.6464 15.0417 52.3547 16.0167 52.3547 17.3V17.85C52.338 19 51.988 19.8667 51.3047 20.45C50.638 21.0167 49.5797 21.3 48.1297 21.3C47.3797 21.3 46.3047 21.125 44.9047 20.775L45.0047 18.875C46.2547 19.2417 47.2797 19.425 48.0797 19.425C48.8964 19.425 49.463 19.3167 49.7797 19.1C50.0964 18.8667 50.2547 18.4917 50.2547 17.975V17.725C50.2547 17.325 50.1714 17.0083 50.0047 16.775C49.8547 16.5417 49.5964 16.3417 49.2297 16.175L46.8047 15.1C46.0714 14.7667 45.5297 14.3667 45.1797 13.9C44.8464 13.4333 44.6797 12.8917 44.6797 12.275V11.925C44.713 10.7917 45.063 9.94167 45.7297 9.375C46.413 8.79167 47.4797 8.5 48.9297 8.5ZM57.4756 8.8H60.7256V10.55H57.4756V17.7C57.4756 18.3333 57.6006 18.7917 57.8506 19.075C58.1173 19.3417 58.5256 19.475 59.0756 19.475C59.7756 19.475 60.4589 19.3917 61.1256 19.225L61.1756 21C60.4423 21.2 59.7756 21.3 59.1756 21.3C57.8423 21.3 56.8673 21.0083 56.2506 20.425C55.6506 19.825 55.3506 18.8583 55.3506 17.525V10.55H53.6006V8.8H55.3506L55.7506 5.55H57.4756V8.8ZM68.7479 8.5C68.9812 8.5 69.1645 8.51667 69.2979 8.55V10.95C69.0479 10.9 68.7229 10.875 68.3229 10.875C67.1562 10.875 66.2312 11.4583 65.5479 12.625V21H63.4229V8.8H65.4229V10.625C65.8729 9.94167 66.3729 9.41667 66.9229 9.05C67.4895 8.68333 68.0979 8.5 68.7479 8.5ZM73.6777 8.8V21H71.5527V8.8H73.6777ZM72.6027 3.875C73.0527 3.875 73.3944 3.975 73.6277 4.175C73.8777 4.375 74.0027 4.65833 74.0027 5.025V5.75C74.0027 6.11667 73.8777 6.4 73.6277 6.6C73.3944 6.78333 73.0527 6.875 72.6027 6.875C72.1694 6.875 71.8277 6.78333 71.5777 6.6C71.3444 6.4 71.2277 6.11667 71.2277 5.75V5.025C71.2277 4.65833 71.3444 4.375 71.5777 4.175C71.8277 3.975 72.1694 3.875 72.6027 3.875ZM80.893 8.5C82.3263 8.5 83.368 8.825 84.018 9.475C84.6846 10.1083 85.018 11.125 85.018 12.525V21H82.993V19.05C82.0263 20.55 80.9346 21.3 79.718 21.3C78.7513 21.3 77.9763 20.9667 77.393 20.3C76.8263 19.6333 76.543 18.725 76.543 17.575V16.875C76.543 15.875 76.8846 15.05 77.568 14.4C78.2513 13.7333 79.168 13.4 80.318 13.4C80.9513 13.4 81.8096 13.5083 82.893 13.725V12.35C82.893 11.6333 82.7263 11.1167 82.393 10.8C82.0763 10.4833 81.5763 10.325 80.893 10.325C80.093 10.325 78.968 10.45 77.518 10.7V8.875C79.0846 8.625 80.2096 8.5 80.893 8.5ZM80.843 15.05C80.143 15.05 79.6096 15.2333 79.243 15.6C78.8763 15.9667 78.693 16.4833 78.693 17.15V17.425C78.693 18.0417 78.8346 18.525 79.118 18.875C79.4013 19.225 79.7596 19.4 80.193 19.4C80.643 19.4 81.1013 19.2083 81.568 18.825C82.0513 18.425 82.493 17.8667 82.893 17.15V15.225C82.2596 15.1083 81.5763 15.05 80.843 15.05ZM90.5234 3.925V21H88.3984V3.925H90.5234Z" fill="white"/>
</g>
<defs>
<filter id="filter0_d_13_3" x="0.611328" y="0.875" width="96.9121" height="27.425" filterUnits="userSpaceOnUse" color-interpolation-filters="sRGB">
<feFlood flood-opacity="0" result="BackgroundImageFix"/>
<feColorMatrix in="SourceAlpha" type="matrix" values="0 0 0 0 0 0 0 0 0 0 0 0 0 0 0 0 0 0 127 0" result="hardAlpha"/>
<feOffset dx="2" dy="2"/>
<feGaussianBlur stdDeviation="2.5"/>
<feColorMatrix type="matrix" values="0 0 0 0 0 0 0 0 0 0 0 0 0 0 0 0 0 0 0.25 0"/>
<feBlend mode="normal" in2="BackgroundImageFix" result="effect1_dropShadow_13_3"/>
<feBlend mode="normal" in="SourceGraphic" in2="effect1_dropShadow_13_3" result="shape"/>
</filter>
</defs>
</svg>
