<svg width="80" height="29" viewBox="0 0 80 29" fill="none" xmlns="http://www.w3.org/2000/svg">
<g filter="url(#filter0_d_13_6)">
<path d="M15.3341 21L15.2091 7.55L11.7341 19.3H9.10908L5.63408 7.55L5.50908 21H3.43408L3.58408 4.625H6.73408L10.4341 17.4L14.1091 4.625H17.2591L17.4091 21H15.3341ZM25.0646 8.5C26.5479 8.5 27.6479 8.9 28.3646 9.7C29.0979 10.4833 29.4646 11.6 29.4646 13.05V16.75C29.4646 18.2 29.0979 19.325 28.3646 20.125C27.6479 20.9083 26.5479 21.3 25.0646 21.3C23.5812 21.3 22.4729 20.9083 21.7396 20.125C21.0229 19.325 20.6646 18.2 20.6646 16.75V13.05C20.6646 11.6 21.0229 10.4833 21.7396 9.7C22.4729 8.9 23.5812 8.5 25.0646 8.5ZM25.0646 10.275C24.3479 10.275 23.7896 10.5 23.3896 10.95C22.9896 11.4 22.7896 12.0417 22.7896 12.875V16.925C22.7896 17.7583 22.9896 18.4 23.3896 18.85C23.7896 19.3 24.3479 19.525 25.0646 19.525C25.7812 19.525 26.3396 19.3 26.7396 18.85C27.1396 18.4 27.3396 17.7583 27.3396 16.925V12.85C27.3396 12.0167 27.1396 11.3833 26.7396 10.95C26.3396 10.5 25.7812 10.275 25.0646 10.275ZM41.1065 21H39.0815V19.025C38.0815 20.5417 36.9399 21.3 35.6565 21.3C34.6232 21.3 33.8315 20.95 33.2815 20.25C32.7315 19.5333 32.4565 18.4917 32.4565 17.125V12.675C32.4565 11.3583 32.7565 10.3333 33.3565 9.6C33.9732 8.86667 34.8482 8.5 35.9815 8.5C36.4649 8.5 36.9732 8.625 37.5065 8.875C38.0399 9.10833 38.5315 9.4 38.9815 9.75V3.925H41.1065V21ZM36.4565 10.4C35.8565 10.4 35.3899 10.6167 35.0565 11.05C34.7399 11.4667 34.5815 12.1083 34.5815 12.975V16.85C34.5815 18.55 35.1065 19.4 36.1565 19.4C36.6565 19.4 37.1482 19.2083 37.6315 18.825C38.1315 18.425 38.5815 17.8667 38.9815 17.15V11.65C38.6315 11.2833 38.2149 10.9833 37.7315 10.75C37.2649 10.5167 36.8399 10.4 36.4565 10.4ZM48.5962 8.5C49.9962 8.5 51.0629 8.88333 51.7962 9.65C52.5295 10.4167 52.8962 11.525 52.8962 12.975V15.55H46.4712V17.025C46.4712 17.875 46.6712 18.4917 47.0712 18.875C47.4879 19.2417 48.1379 19.425 49.0212 19.425C49.8879 19.425 50.9712 19.2917 52.2712 19.025L52.3212 20.875C50.7712 21.1583 49.6629 21.3 48.9962 21.3C47.3462 21.3 46.1545 20.9417 45.4212 20.225C44.7045 19.5083 44.3462 18.4 44.3462 16.9V12.975C44.3462 11.525 44.6962 10.4167 45.3962 9.65C46.1129 8.88333 47.1795 8.5 48.5962 8.5ZM48.5962 10.275C47.9462 10.275 47.4295 10.4833 47.0462 10.9C46.6629 11.3 46.4712 11.8833 46.4712 12.65V13.85H50.7712V12.725C50.7712 11.925 50.5712 11.3167 50.1712 10.9C49.7879 10.4833 49.2629 10.275 48.5962 10.275ZM61.1028 8.5C61.3362 8.5 61.5195 8.51667 61.6528 8.55V10.95C61.4028 10.9 61.0778 10.875 60.6778 10.875C59.5112 10.875 58.5862 11.4583 57.9028 12.625V21H55.7778V8.8H57.7778V10.625C58.2278 9.94167 58.7278 9.41667 59.2778 9.05C59.8445 8.68333 60.4528 8.5 61.1028 8.5ZM69.2327 8.5C70.2994 8.5 71.116 8.86667 71.6827 9.6C72.266 10.3167 72.5577 11.3417 72.5577 12.675V21H70.4327V12.975C70.4327 11.3083 69.891 10.475 68.8077 10.475C68.3244 10.475 67.8327 10.6583 67.3327 11.025C66.8327 11.3917 66.3994 11.8917 66.0327 12.525V21H63.9077V8.8H65.9077V10.625C66.3577 9.94167 66.8577 9.41667 67.4077 9.05C67.9744 8.68333 68.5827 8.5 69.2327 8.5Z" fill="white"/>
</g>
<defs>
<filter id="filter0_d_13_6" x="0.434082" y="0.924988" width="79.1236" height="27.375" filterUnits="userSpaceOnUse" color-interpolation-filters="sRGB">
<feFlood flood-opacity="0" result="BackgroundImageFix"/>
<feColorMatrix in="SourceAlpha" type="matrix" values="0 0 0 0 0 0 0 0 0 0 0 0 0 0 0 0 0 0 127 0" result="hardAlpha"/>
<feOffset dx="2" dy="2"/>
<feGaussianBlur stdDeviation="2.5"/>
<feColorMatrix type="matrix" values="0 0 0 0 0 0 0 0 0 0 0 0 0 0 0 0 0 0 0.25 0"/>
<feBlend mode="normal" in2="BackgroundImageFix" result="effect1_dropShadow_13_6"/>
<feBlend mode="normal" in="SourceGraphic" in2="effect1_dropShadow_13_6" result="shape"/>
</filter>
</defs>
</svg>
